<?xml version="1.0" encoding="UTF-8"?>
<svg xmlns="http://www.w3.org/2000/svg" id="Layer_2" data-name="Layer 2" viewBox="0 0 193.35 193.2">
  <defs>
    <style>
      .cls-1 {
        fill: #212721;
      }

      .cls-1, .cls-2 {
        stroke-width: 0px;
      }

      .cls-2 {
        fill: #fff;
      }
    </style>
  </defs>
  <g id="Layer_1-2" data-name="Layer 1">
    <g>
      <path class="cls-1" d="M174.46,188.26v-7.54c0-10.09-8.21-18.29-18.29-18.29s-18.29,8.21-18.29,18.29v12.48h18.02c6.76,0,13.1-1.8,18.57-4.94Z"></path>
      <path class="cls-1" d="M185.8,87.52v4.35h6.29c.49,0,.91.28,1.12.68v-5.03h-7.4Z"></path>
      <path class="cls-1" d="M193.09,158.84c-.61-.09-1.08-.61-1.08-1.24,0-.67.53-1.22,1.19-1.26,0-.15,0-.3,0-.45v-7.01h-6.3c-.7,0-1.26-.57-1.26-1.26s.57-1.26,1.26-1.26h6.3v-10.7l-8.51-14.67-1.25-2.15s-.02-.04-.03-.07l-5.64-9.73h-42.44l-21.63,37.32h11.72c.7,0,1.26.57,1.26,1.26s-.57,1.26-1.26,1.26h-12.74c-.14,0-.28-.03-.4-.07l-4.36,7.53h11.14c.7,0,1.26.57,1.26,1.26s-.57,1.26-1.26,1.26h-12.6l-4.32,7.45h10.55c.7,0,1.26.57,1.26,1.26s-.57,1.26-1.26,1.26h-12.02l-10.1,17.43h44.78v-5.55c0-11.48,9.34-20.82,20.82-20.82s20.82,9.34,20.82,20.82v5.55h.57c8.72-6.23,14.65-16.12,15.53-27.43ZM156.17,148.79c-2.48,0-4.48-2.01-4.48-4.48s2.01-4.48,4.48-4.48,4.48,2.01,4.48,4.48-2.01,4.48-4.48,4.48ZM156.17,131.33c-2.48,0-4.48-2.01-4.48-4.48s2.01-4.48,4.48-4.48,4.48,2.01,4.48,4.48-2.01,4.48-4.48,4.48Z"></path>
      <path class="cls-1" d="M192.09,102.84h-6.29v5.91h6.29c.49,0,.91.28,1.12.68v-7.28c-.21.4-.63.68-1.12.68Z"></path>
      <polygon class="cls-1" points="135.35 188.8 89.11 188.8 86.55 193.2 135.35 193.2 135.35 188.8"></polygon>
      <path class="cls-1" d="M192.09,111.28h-6.29v6.57l1.09,1.89,6.31,10.84v-19.98c-.21.4-.63.68-1.12.68Z"></path>
      <rect class="cls-1" x="182.4" y="79.52" width="10.8" height="4.94"></rect>
      <path class="cls-1" d="M192.09,94.4h-6.29v5.91h6.29c.49,0,.91.28,1.12.68v-7.28c-.21.4-.63.68-1.12.68Z"></path>
      <path class="cls-1" d="M112.48,142.93l14.6-25.08v-6.58h-6.29c-.7,0-1.26-.57-1.26-1.26s.57-1.26,1.26-1.26h6.29v-5.91h-6.29c-.7,0-1.26-.57-1.26-1.26s.57-1.26,1.26-1.26h6.29v-5.91h-6.29c-.7,0-1.26-.57-1.26-1.26s.57-1.26,1.26-1.26h6.29v-4.35h-14.6v55.41Z"></path>
      <path class="cls-1" d="M193.2,53.28v-5.01c-.64.68-1.06,1.37-1.06,2.51s.42,1.83,1.06,2.51Z"></path>
      <path class="cls-1" d="M193.19,36.57c-.03-1.54-.15-3.06-.37-4.56-.42.55-.68,1.17-.68,2.06,0,1.13.41,1.82,1.05,2.5Z"></path>
      <path class="cls-1" d="M41.47,193.2v-18.54c-2.05,4.69-5.74,10.11-12.34,13.57-.19.1-.39.14-.58.14-.45,0-.89-.25-1.12-.68-.32-.62-.08-1.38.53-1.7,11.83-6.19,13.42-19.88,13.51-20.75v-5.01c-2.05,4.69-5.74,10.11-12.34,13.57-.19.1-.39.14-.58.14-.45,0-.89-.25-1.12-.68-.32-.62-.08-1.38.53-1.7,11.83-6.19,13.42-19.88,13.51-20.75v-5.01c-2.05,4.69-5.74,10.11-12.34,13.57-.19.1-.39.14-.58.14-.45,0-.89-.25-1.12-.68-.32-.62-.08-1.38.53-1.7,11.83-6.19,13.42-19.88,13.51-20.75v-5.01c-2.05,4.69-5.74,10.11-12.34,13.57-.19.1-.39.14-.58.14-.45,0-.89-.25-1.12-.68-.32-.62-.08-1.38.53-1.7,11.83-6.19,13.42-19.88,13.51-20.75v-5.01c-2.05,4.69-5.74,10.11-12.34,13.57-.19.1-.39.14-.58.14-.45,0-.89-.25-1.12-.68-.32-.62-.08-1.38.53-1.7,11.83-6.19,13.42-19.88,13.51-20.75v-5.01c-2.05,4.69-5.74,10.11-12.34,13.57-.19.1-.39.14-.58.14-.45,0-.89-.25-1.12-.68-.32-.62-.08-1.38.53-1.7,11.83-6.2,13.42-19.88,13.51-20.75v-5.01c-2.05,4.69-5.74,10.11-12.34,13.57-.19.1-.39.14-.58.14-.45,0-.89-.25-1.12-.68-.32-.62-.08-1.38.53-1.7,12.16-6.37,13.5-20.65,13.51-20.79,0,0,0-.02,0-.03,0-.04.01-.08.02-.12,0-.04.01-.08.03-.12.01-.04.03-.08.05-.12.02-.04.03-.07.05-.1.02-.04.05-.08.08-.12.02-.03.04-.06.06-.08.03-.04.07-.08.11-.12.02-.02.04-.04.06-.05.04-.04.09-.07.14-.1.02-.01.04-.03.06-.04.05-.02.09-.04.14-.06.03-.01.06-.03.09-.03.04-.01.09-.02.13-.03.04,0,.07-.02.11-.02,0,0,.02,0,.03,0,.04,0,.08,0,.11,0,.03,0,.06,0,.09,0,0,0,.01,0,.02,0,.04,0,.08.01.13.02.04,0,.08.02.12.03.03,0,.06.02.09.03.05.02.1.04.14.06.02.01.04.03.06.04.05.03.1.06.14.1.02.02.04.04.06.05.04.04.08.07.11.12.02.03.04.06.06.09.03.04.05.07.07.11.02.04.03.07.05.11.02.04.03.07.05.11.01.04.02.08.03.12,0,.04.02.08.02.12,0,0,0,.02,0,.03.01.14,1.35,14.43,13.51,20.79.62.32.86,1.09.53,1.7-.23.43-.67.68-1.12.68-.2,0-.4-.05-.58-.14-6.6-3.45-10.29-8.87-12.34-13.57v5.02c.09.87,1.68,14.56,13.51,20.75.62.32.86,1.09.53,1.7-.23.43-.67.68-1.12.68-.2,0-.4-.05-.58-.14-6.6-3.45-10.29-8.88-12.34-13.57v5.02c.09.87,1.68,14.56,13.51,20.75.62.32.86,1.09.53,1.7-.23.43-.67.68-1.12.68-.2,0-.4-.05-.58-.14-6.6-3.45-10.29-8.87-12.34-13.57v5.02c.09.87,1.68,14.56,13.51,20.75.62.32.86,1.09.53,1.7-.23.43-.67.68-1.12.68-.2,0-.4-.05-.58-.14-6.6-3.45-10.29-8.88-12.34-13.57v5.02c.09.87,1.68,14.56,13.51,20.75.62.32.86,1.09.53,1.7-.23.43-.67.68-1.12.68-.2,0-.4-.05-.58-.14-6.6-3.45-10.29-8.88-12.34-13.57v5.02c.09.87,1.68,14.55,13.51,20.75.62.32.86,1.09.53,1.7-.23.43-.67.68-1.12.68-.2,0-.4-.05-.58-.14-6.6-3.45-10.29-8.87-12.34-13.57v5.02c.09.87,1.68,14.56,13.51,20.75.62.32.86,1.09.53,1.7-.23.43-.67.68-1.12.68-.2,0-.4-.05-.58-.14-6.6-3.45-10.29-8.88-12.34-13.57v18.54h35.89v-24.54c-2.05,4.69-5.74,10.11-12.34,13.57-.19.1-.39.14-.58.14-.45,0-.89-.25-1.12-.68-.32-.62-.08-1.38.53-1.7,11.83-6.19,13.42-19.88,13.51-20.75v-5.01c-2.05,4.69-5.74,10.11-12.34,13.57-.19.1-.39.14-.58.14-.45,0-.89-.25-1.12-.68-.32-.62-.08-1.38.53-1.7,11.83-6.2,13.42-19.88,13.51-20.75v-5.01c-2.05,4.69-5.74,10.11-12.34,13.57-.19.1-.39.14-.58.14-.45,0-.89-.25-1.12-.68-.32-.62-.08-1.38.53-1.7,11.83-6.19,13.42-19.88,13.51-20.75v-5.02c-2.05,4.69-5.74,10.11-12.34,13.57-.19.1-.39.14-.58.14-.45,0-.89-.25-1.12-.68-.32-.62-.08-1.38.53-1.7,11.83-6.19,13.42-19.88,13.51-20.75v-5.01c-2.05,4.69-5.74,10.11-12.34,13.57-.19.1-.39.14-.58.14-.45,0-.89-.25-1.12-.68-.32-.62-.08-1.38.53-1.7,11.83-6.2,13.42-19.88,13.51-20.75v-5.02c-2.05,4.69-5.74,10.11-12.34,13.57-.19.1-.39.14-.58.14-.45,0-.89-.25-1.12-.68-.32-.62-.08-1.38.53-1.7,11.83-6.2,13.42-19.88,13.51-20.75v-5.01c-2.05,4.69-5.74,10.11-12.34,13.57-.19.1-.39.14-.58.14-.45,0-.89-.25-1.12-.68-.32-.62-.08-1.38.53-1.7,11.83-6.2,13.42-19.88,13.51-20.75v-5.01c-2.05,4.69-5.74,10.11-12.34,13.57-.19.1-.39.14-.58.14-.45,0-.89-.25-1.12-.68-.32-.62-.08-1.38.53-1.7,11.83-6.19,13.42-19.88,13.51-20.75v-5.01c-2.05,4.69-5.74,10.11-12.34,13.57-.19.1-.39.14-.58.14-.45,0-.89-.25-1.12-.68-.32-.62-.08-1.38.53-1.7,12.16-6.37,13.5-20.65,13.51-20.79,0,0,0-.02,0-.02,0-.05.02-.1.03-.14,0-.03.01-.07.02-.1.02-.05.04-.1.06-.14.01-.03.02-.06.04-.08.03-.05.06-.1.09-.14.01-.02.02-.04.04-.06.04-.05.09-.1.14-.14.01,0,.02-.02.03-.03.05-.04.11-.08.17-.11.01,0,.02-.02.03-.02.05-.03.11-.05.17-.07.02,0,.04-.02.06-.02.05-.02.1-.02.15-.03.03,0,.06-.01.1-.02,0,0,.02,0,.03,0,.04,0,.08,0,.12,0,.03,0,.06,0,.09,0,0,0,.01,0,.02,0,.05,0,.09.02.13.02.04,0,.08.01.12.03.03.01.06.03.09.04.05.02.09.04.14.06.02.01.04.03.06.04.05.03.09.06.14.1.02.02.04.04.05.05.04.04.08.07.11.12.02.02.04.05.05.08.03.04.06.08.08.12.02.03.03.06.04.1.02.04.04.08.05.13.01.03.02.07.02.11.01.05.02.09.03.14,0,0,0,.01,0,.02.01.14,1.35,14.43,13.51,20.79.62.32.86,1.09.53,1.7-.23.43-.67.68-1.12.68-.2,0-.4-.05-.58-.14-6.6-3.45-10.29-8.87-12.34-13.57v5.01c.09.87,1.68,14.56,13.51,20.75.62.32.86,1.09.53,1.7-.23.43-.67.68-1.12.68-.2,0-.4-.05-.58-.14-6.6-3.45-10.29-8.87-12.34-13.57v5.02c.09.87,1.68,14.56,13.51,20.75.62.32.86,1.09.53,1.7-.23.43-.67.68-1.12.68-.2,0-.4-.05-.58-.14-6.6-3.45-10.29-8.87-12.34-13.57v5.01c.09.87,1.68,14.56,13.51,20.75.62.32.86,1.09.53,1.7-.23.43-.67.68-1.12.68-.2,0-.4-.05-.58-.14-6.6-3.45-10.29-8.87-12.34-13.57v5.02c.09.87,1.68,14.56,13.51,20.75.62.32.86,1.09.53,1.7-.23.43-.67.68-1.12.68-.2,0-.4-.05-.58-.14-6.6-3.45-10.29-8.87-12.34-13.57v5.01c.09.87,1.68,14.56,13.51,20.75.62.32.86,1.09.53,1.7-.23.43-.67.68-1.12.68-.2,0-.4-.05-.58-.14-6.6-3.45-10.29-8.87-12.34-13.57v5.02c.09.87,1.68,14.55,13.51,20.75.62.32.86,1.09.53,1.7-.23.43-.67.68-1.12.68-.2,0-.4-.05-.58-.14-6.6-3.45-10.29-8.87-12.34-13.57v53.4h1.22l26.33-45.44c0-.05-.01-.1-.01-.15v-60.63h-2.73c-.7,0-1.26-.57-1.26-1.26v-7.47c0-.7.57-1.26,1.26-1.26h24.51c.7,0,1.26.57,1.26,1.26v7.47c0,.7-.57,1.26-1.26,1.26h-2.13v26.89l25.85-44.61c.23-.39.64-.63,1.09-.63s.87.24,1.09.63l25.63,44.21v-26.5h-2.13c-.7,0-1.26-.57-1.26-1.26v-7.47c0-.7.57-1.26,1.26-1.26h12.06v-12.02c-.64.68-1.06,1.37-1.06,2.51,0,.7-.57,1.26-1.26,1.26s-1.26-.57-1.26-1.26c0-2.63,1.45-4,2.61-5.1.37-.34.69-.66.97-.98v-4.55c-.28-.32-.6-.64-.97-.98-1.16-1.1-2.61-2.46-2.61-5.1s1.45-4,2.61-5.09c.37-.34.69-.66.97-.98v-4.55c-.28-.32-.6-.64-.97-.98-1.16-1.1-2.61-2.46-2.61-5.09s1.45-4,2.61-5.09c.01,0,.02-.02.03-.03-3.79-16.58-18.64-28.96-36.37-28.96H37.31C16.71,0,0,16.71,0,37.31v118.58c0,20.61,16.71,37.31,37.31,37.31h4.16ZM143.58,26.96c.4-.32.96-.37,1.41-.11.45.26.7.76.63,1.27-.33,2.41-.17,4.83.47,7.18,1.27,4.6,4.25,8.42,8.4,10.78,4.15,2.35,8.96,2.95,13.56,1.68h0c2.35-.65,4.51-1.75,6.41-3.28.4-.32.96-.37,1.41-.11.45.26.7.76.63,1.27-1.12,8.07-6.91,14.69-14.76,16.86-1.8.5-3.63.74-5.45.74-3.48,0-6.92-.9-10.02-2.66-4.73-2.69-8.14-7.05-9.58-12.3-2.17-7.85.54-16.22,6.9-21.32ZM118.92,55.87c-1.16-1.1-2.61-2.46-2.61-5.1s1.45-4,2.61-5.09c1.06-.99,1.82-1.71,1.82-3.25s-.76-2.26-1.82-3.26c-1.16-1.1-2.61-2.46-2.61-5.09s1.45-4,2.61-5.09c1.06-.99,1.82-1.71,1.82-3.25,0-.7.57-1.26,1.26-1.26s1.26.57,1.26,1.26c0,2.63-1.45,4-2.61,5.09-1.06.99-1.82,1.71-1.82,3.25s.76,2.26,1.82,3.26c1.16,1.1,2.61,2.46,2.61,5.09s-1.45,4-2.61,5.09c-1.06.99-1.82,1.71-1.82,3.25s.76,2.26,1.82,3.26c1.16,1.1,2.61,2.46,2.61,5.1s-1.45,4-2.61,5.1c-1.06,1-1.82,1.71-1.82,3.26,0,.7-.57,1.26-1.26,1.26s-1.26-.57-1.26-1.26c0-2.63,1.45-4,2.61-5.1,1.06-1,1.82-1.71,1.82-3.26s-.76-2.26-1.82-3.26Z"></path>
      <rect class="cls-1" x="108.49" y="79.52" width="21.99" height="4.94"></rect>
      <polygon class="cls-1" points="136.8 106.51 176.31 106.51 156.55 72.42 136.8 106.51"></polygon>
      <path class="cls-1" d="M147.51,58.39c4.15,2.35,8.96,2.95,13.56,1.68,5.88-1.62,10.44-6.09,12.25-11.77-1.44.81-2.98,1.45-4.6,1.89-5.25,1.45-10.74.77-15.48-1.92-4.73-2.69-8.14-7.05-9.58-12.3-.45-1.62-.69-3.26-.73-4.92-3.94,4.47-5.44,10.67-3.82,16.55,1.27,4.6,4.25,8.42,8.4,10.78Z"></path>
      <path class="cls-2" d="M156.17,122.36c-2.48,0-4.48,2.01-4.48,4.48s2.01,4.48,4.48,4.48,4.48-2.01,4.48-4.48-2.01-4.48-4.48-4.48Z"></path>
      <path class="cls-2" d="M156.17,139.83c-2.48,0-4.48,2.01-4.48,4.48s2.01,4.48,4.48,4.48,4.48-2.01,4.48-4.48-2.01-4.48-4.48-4.48Z"></path>
      <path class="cls-2" d="M193.2,92.55v1.16c.09-.17.15-.37.15-.58s-.06-.41-.15-.58Z"></path>
      <path class="cls-2" d="M193.2,109.43v1.16c.09-.17.15-.37.15-.58s-.06-.41-.15-.58Z"></path>
      <path class="cls-2" d="M193.2,100.99v1.16c.09-.17.15-.37.15-.58s-.06-.41-.15-.58Z"></path>
      <path class="cls-2" d="M82.42,139.8c2.05,4.69,5.74,10.11,12.34,13.57.19.1.39.14.58.14.45,0,.89-.25,1.12-.68.32-.62.08-1.38-.53-1.7-11.83-6.19-13.42-19.88-13.51-20.75v-5.02c2.05,4.69,5.74,10.11,12.34,13.57.19.1.39.14.58.14.45,0,.89-.25,1.12-.68.32-.62.08-1.38-.53-1.7-11.83-6.19-13.42-19.88-13.51-20.75v-5.01c2.05,4.69,5.74,10.11,12.34,13.57.19.1.39.14.58.14.45,0,.89-.25,1.12-.68.32-.62.08-1.38-.53-1.7-11.83-6.2-13.42-19.88-13.51-20.75v-5.02c2.05,4.69,5.74,10.11,12.34,13.57.19.1.39.14.58.14.45,0,.89-.25,1.12-.68.32-.62.08-1.38-.53-1.7-11.83-6.2-13.42-19.88-13.51-20.75v-5.01c2.05,4.69,5.74,10.11,12.34,13.57.19.1.39.14.58.14.45,0,.89-.25,1.12-.68.32-.62.08-1.38-.53-1.7-11.83-6.2-13.42-19.88-13.51-20.75v-5.02c2.05,4.69,5.74,10.12,12.34,13.57.19.1.39.14.58.14.45,0,.89-.25,1.12-.68.32-.62.08-1.38-.53-1.7-11.83-6.19-13.42-19.88-13.51-20.75v-5.01c2.05,4.69,5.74,10.12,12.34,13.57.19.1.39.14.58.14.45,0,.89-.25,1.12-.68.32-.62.08-1.38-.53-1.7-12.16-6.37-13.5-20.65-13.51-20.79,0,0,0-.02,0-.02,0-.05-.02-.09-.03-.14,0-.04-.01-.07-.02-.11-.01-.04-.03-.09-.05-.13-.01-.03-.03-.07-.04-.1-.02-.04-.05-.08-.08-.12-.02-.03-.03-.05-.05-.08-.03-.04-.07-.08-.11-.12-.02-.02-.04-.04-.05-.05-.04-.04-.09-.07-.14-.1-.02-.01-.04-.03-.06-.04-.04-.02-.09-.04-.14-.06-.03-.01-.06-.03-.09-.04-.04-.01-.08-.02-.12-.03-.04,0-.09-.02-.13-.02,0,0-.01,0-.02,0-.03,0-.06,0-.09,0-.04,0-.08,0-.12,0,0,0-.02,0-.03,0-.03,0-.06.01-.1.02-.05,0-.1.02-.15.03-.02,0-.04.02-.06.02-.06.02-.11.04-.17.07-.01,0-.02.02-.03.02-.06.03-.11.07-.17.11-.01,0-.02.02-.03.03-.05.04-.1.09-.14.14-.01.02-.03.04-.04.06-.03.05-.07.09-.09.14-.01.03-.02.06-.04.08-.02.05-.04.09-.06.14-.01.03-.01.07-.02.1-.01.05-.02.09-.03.14,0,0,0,.02,0,.02-.01.14-1.35,14.43-13.51,20.79-.62.32-.86,1.09-.53,1.7.23.43.67.68,1.12.68.2,0,.4-.05.58-.14,6.6-3.45,10.29-8.87,12.34-13.57v5.01c-.09.87-1.68,14.56-13.51,20.75-.62.32-.86,1.09-.53,1.7.23.43.67.68,1.12.68.2,0,.4-.05.58-.14,6.6-3.45,10.29-8.87,12.34-13.57v5.01c-.09.87-1.68,14.56-13.51,20.75-.62.32-.86,1.09-.53,1.7.23.43.67.68,1.12.68.2,0,.4-.05.58-.14,6.6-3.45,10.29-8.87,12.34-13.57v5.01c-.09.87-1.68,14.56-13.51,20.75-.62.32-.86,1.09-.53,1.7.23.43.67.68,1.12.68.2,0,.4-.05.58-.14,6.6-3.45,10.29-8.87,12.34-13.57v5.02c-.09.87-1.68,14.56-13.51,20.75-.62.32-.86,1.09-.53,1.7.23.43.67.68,1.12.68.2,0,.4-.05.58-.14,6.6-3.45,10.29-8.87,12.34-13.57v5.01c-.09.87-1.68,14.56-13.51,20.75-.62.32-.86,1.09-.53,1.7.23.43.67.68,1.12.68.2,0,.4-.05.58-.14,6.6-3.45,10.29-8.87,12.34-13.57v5.02c-.09.87-1.68,14.55-13.51,20.75-.62.32-.86,1.09-.53,1.7.23.43.67.68,1.12.68.2,0,.4-.05.58-.14,6.6-3.45,10.29-8.87,12.34-13.57v5.01c-.09.87-1.68,14.56-13.51,20.75-.62.32-.86,1.09-.53,1.7.23.43.67.68,1.12.68.2,0,.4-.05.58-.14,6.6-3.45,10.29-8.87,12.34-13.57v5.01c-.09.87-1.68,14.56-13.51,20.75-.62.32-.86,1.09-.53,1.7.23.43.67.68,1.12.68.2,0,.4-.05.58-.14,6.6-3.45,10.29-8.87,12.34-13.57v24.54h2.53v-53.4Z"></path>
      <path class="cls-2" d="M44,174.66c2.05,4.69,5.74,10.12,12.34,13.57.19.1.39.14.58.14.45,0,.89-.25,1.12-.68.32-.62.08-1.38-.53-1.7-11.83-6.2-13.42-19.88-13.51-20.75v-5.02c2.05,4.69,5.74,10.12,12.34,13.57.19.1.39.14.58.14.45,0,.89-.25,1.12-.68.32-.62.08-1.38-.53-1.7-11.83-6.19-13.42-19.88-13.51-20.75v-5.02c2.05,4.69,5.74,10.12,12.34,13.57.19.1.39.14.58.14.45,0,.89-.25,1.12-.68.32-.62.08-1.38-.53-1.7-11.83-6.2-13.42-19.88-13.51-20.75v-5.02c2.05,4.69,5.74,10.12,12.34,13.57.19.1.39.14.58.14.45,0,.89-.25,1.12-.68.32-.62.08-1.38-.53-1.7-11.83-6.2-13.42-19.88-13.51-20.75v-5.02c2.05,4.69,5.74,10.12,12.34,13.57.19.1.39.14.58.14.45,0,.89-.25,1.12-.68.32-.62.08-1.38-.53-1.7-11.83-6.19-13.42-19.88-13.51-20.75v-5.02c2.05,4.69,5.74,10.12,12.34,13.57.19.1.39.14.58.14.45,0,.89-.25,1.12-.68.32-.62.08-1.38-.53-1.7-11.83-6.2-13.42-19.88-13.51-20.75v-5.02c2.05,4.69,5.74,10.12,12.34,13.57.19.1.39.14.58.14.45,0,.89-.25,1.12-.68.32-.62.08-1.38-.53-1.7-12.16-6.37-13.5-20.65-13.51-20.79,0,0,0-.02,0-.03,0-.04-.01-.08-.02-.12,0-.04-.01-.08-.03-.12-.01-.04-.03-.08-.05-.11-.02-.04-.03-.08-.05-.11-.02-.04-.05-.08-.07-.11-.02-.03-.04-.06-.06-.09-.03-.04-.07-.08-.11-.12-.02-.02-.04-.04-.06-.05-.04-.04-.09-.07-.14-.1-.02-.01-.04-.03-.06-.04-.05-.03-.09-.04-.14-.06-.03-.01-.06-.03-.09-.03-.04-.01-.08-.02-.12-.03-.04,0-.08-.02-.13-.02,0,0-.01,0-.02,0-.03,0-.06,0-.09,0-.04,0-.07,0-.11,0,0,0-.02,0-.03,0-.04,0-.08.01-.11.02-.05,0-.09.02-.13.03-.03,0-.06.02-.09.03-.05.02-.1.04-.14.06-.02.01-.04.03-.06.04-.05.03-.1.06-.14.1-.02.02-.04.04-.06.05-.04.04-.08.07-.11.12-.02.03-.04.05-.06.08-.03.04-.06.08-.08.12-.02.03-.03.07-.05.1-.02.04-.04.08-.05.12-.01.04-.02.08-.03.12,0,.04-.02.08-.02.12,0,0,0,.02,0,.03-.01.14-1.35,14.43-13.51,20.79-.62.32-.86,1.09-.53,1.7.23.43.67.68,1.12.68.2,0,.4-.05.58-.14,6.6-3.45,10.28-8.87,12.34-13.57v5.01c-.09.87-1.68,14.56-13.51,20.75-.62.32-.86,1.09-.53,1.7.23.43.67.68,1.12.68.2,0,.4-.05.58-.14,6.6-3.45,10.28-8.87,12.34-13.57v5.01c-.09.87-1.68,14.56-13.51,20.75-.62.32-.86,1.09-.53,1.7.23.43.67.68,1.12.68.2,0,.4-.05.58-.14,6.6-3.45,10.28-8.87,12.34-13.57v5.01c-.09.87-1.68,14.56-13.51,20.75-.62.32-.86,1.09-.53,1.7.23.43.67.68,1.12.68.2,0,.4-.05.58-.14,6.6-3.45,10.28-8.87,12.34-13.57v5.01c-.09.87-1.68,14.56-13.51,20.75-.62.32-.86,1.09-.53,1.7.23.43.67.68,1.12.68.2,0,.4-.05.58-.14,6.6-3.45,10.28-8.87,12.34-13.57v5.01c-.09.87-1.68,14.56-13.51,20.75-.62.32-.86,1.09-.53,1.7.23.43.67.68,1.12.68.2,0,.4-.05.58-.14,6.6-3.45,10.28-8.87,12.34-13.57v5.01c-.09.87-1.68,14.56-13.51,20.75-.62.32-.86,1.09-.53,1.7.23.43.67.68,1.12.68.2,0,.4-.05.58-.14,6.6-3.45,10.28-8.87,12.34-13.57v18.54h2.53v-18.54Z"></path>
      <path class="cls-2" d="M185.64,147.61c0,.7.57,1.26,1.26,1.26h6.3v-2.53h-6.3c-.7,0-1.26.57-1.26,1.26Z"></path>
      <path class="cls-2" d="M192.01,157.59c0,.63.47,1.15,1.08,1.24.06-.83.1-1.66.11-2.5-.66.04-1.19.58-1.19,1.26Z"></path>
      <path class="cls-2" d="M179.88,78.26v7.47c0,.7.57,1.26,1.26,1.26h2.13v26.5l-25.63-44.21c-.23-.39-.64-.63-1.09-.63s-.87.24-1.09.63l-25.85,44.61v-26.89h2.13c.7,0,1.26-.57,1.26-1.26v-7.47c0-.7-.57-1.26-1.26-1.26h-24.51c-.7,0-1.26.57-1.26,1.26v7.47c0,.7.57,1.26,1.26,1.26h2.73v60.63c0,.05,0,.1.01.15l-26.33,45.44h2.92l2.55-4.4h46.24v4.4h2.53v-12.48c0-10.09,8.21-18.29,18.29-18.29s18.29,8.21,18.29,18.29v7.54c1.07-.61,2.1-1.28,3.1-1.99h-.57v-5.55c0-11.48-9.34-20.82-20.82-20.82s-20.82,9.34-20.82,20.82v5.55h-44.78l10.1-17.43h12.02c.7,0,1.26-.57,1.26-1.26s-.57-1.26-1.26-1.26h-10.55l4.32-7.45h12.6c.7,0,1.26-.57,1.26-1.26s-.57-1.26-1.26-1.26h-11.14l4.36-7.53c.13.04.26.07.4.07h12.74c.7,0,1.26-.57,1.26-1.26s-.57-1.26-1.26-1.26h-11.72l21.63-37.32h42.44l5.64,9.73s.02.05.03.07l1.25,2.15,8.51,14.67v-5.09l-6.31-10.84-1.09-1.89v-6.57h6.29c.49,0,.91-.28,1.12-.68v-1.16c-.21-.4-.63-.68-1.12-.68h-6.29v-5.91h6.29c.49,0,.91-.28,1.12-.68v-1.16c-.21-.4-.63-.68-1.12-.68h-6.29v-5.91h6.29c.49,0,.91-.28,1.12-.68v-1.16c-.21-.4-.63-.68-1.12-.68h-6.29v-4.35h7.4v-3.06h-10.8v-4.94h10.8v-2.53h-12.06c-.7,0-1.26.57-1.26,1.26ZM108.49,84.46v-4.94h21.99v4.94h-21.99ZM127.08,91.87h-6.29c-.7,0-1.26.57-1.26,1.26s.57,1.26,1.26,1.26h6.29v5.91h-6.29c-.7,0-1.26.57-1.26,1.26s.57,1.26,1.26,1.26h6.29v5.91h-6.29c-.7,0-1.26.57-1.26,1.26s.57,1.26,1.26,1.26h6.29v6.58l-14.6,25.08v-55.41h14.6v4.35ZM136.8,106.51l19.75-34.08,19.75,34.08h-39.51Z"></path>
      <path class="cls-2" d="M118.92,62.38c-1.16,1.1-2.61,2.46-2.61,5.1,0,.7.57,1.26,1.26,1.26s1.26-.57,1.26-1.26c0-1.54.76-2.26,1.82-3.26,1.16-1.1,2.61-2.46,2.61-5.1s-1.45-4-2.61-5.1c-1.06-1-1.82-1.71-1.82-3.26s.76-2.26,1.82-3.25c1.16-1.1,2.61-2.46,2.61-5.09s-1.45-4-2.61-5.09c-1.06-.99-1.82-1.71-1.82-3.26s.76-2.26,1.82-3.25c1.16-1.1,2.61-2.46,2.61-5.09,0-.7-.57-1.26-1.26-1.26s-1.26.57-1.26,1.26c0,1.54-.76,2.26-1.82,3.25-1.16,1.1-2.61,2.46-2.61,5.09s1.45,4,2.61,5.09c1.06.99,1.82,1.71,1.82,3.26s-.76,2.26-1.82,3.25c-1.16,1.1-2.61,2.46-2.61,5.09s1.45,4,2.61,5.1c1.06,1,1.82,1.71,1.82,3.26s-.76,2.26-1.82,3.26Z"></path>
      <path class="cls-2" d="M192.23,62.38c-1.16,1.1-2.61,2.46-2.61,5.1,0,.7.57,1.26,1.26,1.26s1.26-.57,1.26-1.26c0-1.14.42-1.83,1.06-2.51v-3.57c-.28.32-.6.64-.97.98Z"></path>
      <path class="cls-2" d="M192.23,45.68c-1.16,1.1-2.61,2.46-2.61,5.09s1.45,4,2.61,5.1c.37.34.69.66.97.98v-3.57c-.64-.68-1.06-1.37-1.06-2.51s.42-1.82,1.06-2.51v-3.57c-.28.32-.6.64-.97.98Z"></path>
      <path class="cls-2" d="M189.62,34.08c0,2.63,1.45,4,2.61,5.09.37.34.69.66.97.98v-2.84c0-.25,0-.49,0-.74-.63-.68-1.05-1.37-1.05-2.5,0-.89.26-1.51.68-2.06-.15-1.03-.33-2.06-.56-3.06,0,0-.02.02-.03.03-1.16,1.1-2.61,2.46-2.61,5.09Z"></path>
      <path class="cls-2" d="M146.26,60.58c3.11,1.76,6.54,2.66,10.02,2.66,1.82,0,3.65-.25,5.45-.74,7.85-2.17,13.65-8.78,14.76-16.86.07-.51-.18-1.02-.63-1.27-.45-.26-1.01-.21-1.41.11-1.9,1.52-4.06,2.63-6.41,3.28h0c-4.6,1.27-9.41.67-13.56-1.68-4.15-2.35-7.13-6.18-8.4-10.78-.65-2.35-.81-4.77-.47-7.18.07-.51-.18-1.02-.63-1.27-.45-.26-1.01-.21-1.41.11-6.36,5.1-9.07,13.47-6.9,21.32,1.45,5.25,4.85,9.61,9.58,12.3ZM142.93,31.06c.04,1.65.28,3.3.73,4.92,1.45,5.25,4.85,9.61,9.58,12.3,4.73,2.69,10.23,3.37,15.48,1.92,1.62-.45,3.16-1.08,4.6-1.89-1.81,5.68-6.38,10.14-12.25,11.77-4.6,1.27-9.41.67-13.56-1.68s-7.13-6.18-8.4-10.78c-1.62-5.88-.12-12.08,3.82-16.55Z"></path>
    </g>
  </g>
</svg>
